<svg xmlns="http://www.w3.org/2000/svg" xmlns:xlink="http://www.w3.org/1999/xlink" viewBox="0 0 223 18"><defs><style>.a{fill:none;}.b{fill:#231f20;}.c{fill:#7034ee;}.d{clip-path:url(#a);}.e{fill:#1b1c30;}.f{clip-path:url(#b);}.g{fill:url(#c);}</style><clipPath id="a"><rect class="a" x="4.8247" y="1.6524" width="84.6766" height="14.6951"/></clipPath><clipPath id="b"><path class="a" d="M6.5779,11.2256V6.1928l4.3586-2.5162,4.3584,2.5162v5.0328l-4.3584,2.5166ZM4.8247,5.1807v7.057l6.1118,3.5289,6.1116-3.5289V5.1807L10.9365,1.6521Z"/></clipPath><linearGradient id="c" x1="376.8893" y1="506.5654" x2="377.2053" y2="506.5654" gradientTransform="matrix(0, 57.8034, 57.8034, 0, -29270.2862, -21788.6303)" gradientUnits="userSpaceOnUse"><stop offset="0" stop-color="#8002ef"/><stop offset="1" stop-color="#4ba9ea"/></linearGradient></defs><path class="b" d="M97.053,15.4264V1.79h1.0606V15.4264Z"/><path class="c" d="M106.1121,12.7765V3.983h3.27a4.2872,4.2872,0,0,1,4.601,4.39,4.2793,4.2793,0,0,1-4.5879,4.4033Zm6.2886-4.4033a2.8422,2.8422,0,0,0-3.0059-3.0323h-1.74v6.0777h1.7271A2.8911,2.8911,0,0,0,112.4007,8.3732Z"/><path class="c" d="M115.09,8.3863a4.4959,4.4959,0,1,1,8.9912,0,4.4959,4.4959,0,1,1-8.9912,0Zm7.4091,0a2.9245,2.9245,0,1,0-5.8271,0,2.9245,2.9245,0,1,0,5.8271,0Z"/><path class="c" d="M125.1746,8.3863a4.4285,4.4285,0,0,1,4.6143-4.5483,3.9433,3.9433,0,0,1,3.52,1.9644l-1.3052.6855a2.599,2.599,0,0,0-2.2148-1.2788,3.0048,3.0048,0,0,0-3.0322,3.1772,3.02,3.02,0,0,0,3.0322,3.1773,2.6281,2.6281,0,0,0,2.2148-1.2788l1.3184.6592a4.0173,4.0173,0,0,1-3.5332,1.9907A4.4362,4.4362,0,0,1,125.1746,8.3863Z"/><path class="c" d="M134.5482,9.296V3.983h1.5688V9.2565a2.2421,2.2421,0,1,0,4.4824,0V3.983h1.5689V9.296c0,2.1753-1.2525,3.6387-3.81,3.6387C135.8138,12.9347,134.5482,11.4713,134.5482,9.296Z"/><path class="c" d="M151.6336,12.7765v-6.79l-2.6894,6.79h-.6592l-2.7027-6.79v6.79H144.04V3.983h2.1753l2.3994,6.0381,2.3862-6.0381h2.1753v8.7935Z"/><path class="c" d="M155.0477,12.7765V3.983h6.0249V5.3409H156.59V7.6085h4.39V8.9664h-4.39v2.4522h4.4824v1.3579Z"/><path class="c" d="M168.7845,12.7765l-4.5879-6.2886v6.2886h-1.5425V3.983h1.5821l4.4956,6.0908V3.983h1.5424v8.7935Z"/><path class="c" d="M174.242,12.7765V5.3409h-2.6631V3.983h6.8687V5.3409h-2.6631v7.4356Z"/><path class="c" d="M185.9222,12.7765l-.646-1.7007H181.242l-.646,1.7007h-1.7534l3.4541-8.7935h1.9248l3.4541,8.7935Zm-2.6631-7.251-1.582,4.1924h3.164Z"/><path class="c" d="M190.7205,12.7765V5.3409h-2.6631V3.983h6.8687V5.3409H192.263v7.4356Z"/><path class="c" d="M196.2313,12.7765V3.983h1.5424v8.7935Z"/><path class="c" d="M199.263,8.3863a4.4959,4.4959,0,1,1,8.9912,0,4.4959,4.4959,0,1,1-8.9912,0Zm7.4092,0a2.9245,2.9245,0,1,0-5.8272,0,2.9245,2.9245,0,1,0,5.8272,0Z"/><path class="c" d="M215.8607,12.7765l-4.5879-6.2886v6.2886H209.73V3.983h1.582l4.4956,6.0908V3.983H217.35v8.7935Z"/><g class="d"><path class="e" d="M20.7568,10.4989A4.3527,4.3527,0,0,0,23.62,11.686c1.1,0,1.6588-.4014,1.6588-1.03,0-.7333-.89-.9953-1.9205-1.2223C21.9088,9.12,20.1806,8.7355,20.1806,6.85c0-1.379,1.1871-2.5662,3.3171-2.5662A4.8187,4.8187,0,0,1,26.78,5.4708l-.768,1.2918A3.4008,3.4008,0,0,0,23.5151,5.75c-.96,0-1.5712.349-1.5712.9425,0,.6461.8379.873,1.8332,1.1,1.4663.3141,3.2648.7333,3.2648,2.7236,0,1.4839-1.24,2.6186-3.5091,2.6186a5.1282,5.1282,0,0,1-3.6143-1.3092Z"/><path class="e" d="M27.9654,8.7006a4.3393,4.3393,0,1,1,8.6772,0,4.34,4.34,0,1,1-8.6772,0m6.7741,0a2.4584,2.4584,0,1,0-4.871,0,2.4606,2.4606,0,1,0,4.871,0"/><path class="e" d="M43.782,7.653c0-1.3095-.6634-1.746-1.6935-1.746a2.776,2.776,0,0,0-2.1648,1.1347v5.884H38.0905V4.4929h1.8332V5.6453a3.9893,3.9893,0,0,1,2.9676-1.3619A2.4306,2.4306,0,0,1,45.6149,6.99v5.9361H43.782Z"/><path class="e" d="M52.8711,12.0178a3.5594,3.5594,0,0,1-2.7236,1.1173,2.8013,2.8013,0,0,1-2.9332-2.7935,2.7155,2.7155,0,0,1,2.9332-2.7409,3.4856,3.4856,0,0,1,2.7236,1.0825V7.4262c0-.9776-.8032-1.5715-1.9729-1.5715A3.4525,3.4525,0,0,0,48.4018,6.92l-.751-1.2747A5.0161,5.0161,0,0,1,51.195,4.2835c1.8683,0,3.5093.7857,3.5093,3.0554v5.5866H52.8711Zm0-2.2871a2.4683,2.4683,0,0,0-2.0077-.873,1.6,1.6,0,0,0-1.7981,1.519,1.5982,1.5982,0,0,0,1.7981,1.5014,2.4683,2.4683,0,0,0,2.0077-.873Z"/><path class="e" d="M57.4453,10.97V6.0992H56.0486V4.4929h1.3967V2.1885h1.8329V4.4929H60.99V6.0992H59.2782v4.4171c0,.5759.2795.995.8035.995a1.184,1.184,0,0,0,.8205-.2968l.4365,1.3794a2.42,2.42,0,0,1-1.7286.5411A1.9446,1.9446,0,0,1,57.4453,10.97"/><path class="e" d="M63.6368,14.7238a1.1419,1.1419,0,0,0,1.2045-.733l.4191-.96L61.8036,4.4928h1.9552l2.4619,6.32,2.4618-6.32h1.9727l-4.0679,9.9516a2.823,2.823,0,0,1-2.8981,1.903,5.204,5.204,0,0,1-1.03-.122l.2794-1.6413a1.9122,1.9122,0,0,0,.6985.14"/><path class="e" d="M71.5389,16.1381V4.4931h1.8332V5.6452A3.3642,3.3642,0,0,1,76.078,4.2835c2.1825,0,3.7363,1.6411,3.7363,4.4171s-1.5538,4.4345-3.7363,4.4345a3.31,3.31,0,0,1-2.7059-1.3793v4.3823Zm3.998-10.2309a2.736,2.736,0,0,0-2.1648,1.1347v3.3348a2.7858,2.7858,0,0,0,2.1648,1.1347c1.4489,0,2.3743-1.17,2.3743-2.8108,0-1.6236-.9254-2.7934-2.3743-2.7934"/><path class="e" d="M85.346,4.2836c2.5317,0,4.1554,1.9379,4.1554,4.5916v.4365H82.989a2.5543,2.5543,0,0,0,2.6889,2.3219,3.5686,3.5686,0,0,0,2.3917-.9252l.8382,1.2046a4.9162,4.9162,0,0,1-3.4221,1.2219A4.2392,4.2392,0,0,1,81.0686,8.7,4.262,4.262,0,0,1,85.346,4.2836M82.9717,8.02H87.72A2.2554,2.2554,0,0,0,85.346,5.785,2.3259,2.3259,0,0,0,82.9717,8.02"/></g><g class="f"><rect class="g" x="1.6139" y="-0.446" width="18.6449" height="18.3107" transform="translate(-2.6497 12.0074) rotate(-52.1773)"/></g></svg>